<svg id="Layer_1" data-name="Layer 1" xmlns="http://www.w3.org/2000/svg" xmlns:xlink="http://www.w3.org/1999/xlink" viewBox="0 0 350 140"><defs><style>.cls-1{fill:#fff;}.cls-1,.cls-2{fill-rule:evenodd;}.cls-2{fill:#67254a;}.cls-3{mask:url(#mask);}.cls-4{opacity:0.5;}.cls-5{fill:url(#linear-gradient);}.cls-6{fill:url(#linear-gradient-2);}.cls-7{fill:url(#linear-gradient-3);}.cls-8{fill:url(#linear-gradient-4);}.cls-9{fill:url(#linear-gradient-5);}.cls-10{fill:url(#linear-gradient-6);}.cls-11{fill:url(#linear-gradient-7);}.cls-12{fill:url(#linear-gradient-8);}.cls-13{fill:url(#linear-gradient-9);}.cls-14{fill:url(#linear-gradient-10);}.cls-15{fill:url(#linear-gradient-11);}.cls-16{fill:url(#linear-gradient-12);}.cls-17{fill:url(#linear-gradient-13);}.cls-18{fill:url(#linear-gradient-14);}.cls-19{fill:url(#linear-gradient-15);}.cls-20{fill:url(#linear-gradient-16);}.cls-21{fill:url(#linear-gradient-17);}.cls-22{fill:url(#linear-gradient-18);}.cls-23{fill:url(#linear-gradient-19);}.cls-24{fill:url(#linear-gradient-20);}.cls-25{fill:url(#linear-gradient-21);}.cls-26{fill:url(#linear-gradient-22);}.cls-27{fill:url(#linear-gradient-23);}.cls-28{fill:url(#linear-gradient-24);}.cls-29{fill:url(#linear-gradient-25);}.cls-30{fill:url(#linear-gradient-26);}.cls-31{fill:url(#linear-gradient-27);}.cls-32{fill:url(#linear-gradient-28);}.cls-33{fill:url(#linear-gradient-29);}.cls-34{fill:url(#linear-gradient-30);}.cls-35{fill:url(#linear-gradient-31);}.cls-36{fill:url(#linear-gradient-32);}.cls-37{fill:url(#linear-gradient-33);}.cls-38{fill:url(#linear-gradient-34);}.cls-39{fill:url(#linear-gradient-35);}.cls-40{fill:url(#linear-gradient-36);}.cls-41{fill:url(#linear-gradient-37);}.cls-42{fill:url(#linear-gradient-38);}.cls-43{fill:url(#linear-gradient-39);}.cls-44{fill:url(#linear-gradient-40);}.cls-45{fill:url(#linear-gradient-41);}.cls-46{fill:url(#linear-gradient-42);}.cls-47{fill:url(#linear-gradient-43);}.cls-48{fill:url(#linear-gradient-44);}.cls-49{fill:url(#linear-gradient-45);}.cls-50{fill:url(#linear-gradient-46);}.cls-51{fill:url(#linear-gradient-47);}.cls-52{fill:url(#linear-gradient-48);}</style><mask id="mask" x="-11.1" y="-4.04" width="372.21" height="148.08" maskUnits="userSpaceOnUse"><g id="b"><path id="a" class="cls-1" d="M-.1,0H350.1V140H-.1Z"/></g></mask><linearGradient id="linear-gradient" x1="-495.93" y1="472.08" x2="-495.93" y2="471.09" gradientTransform="matrix(0, 29.6, 29.67, 0, -13941.63, 14690.2)" gradientUnits="userSpaceOnUse"><stop offset="0" stop-color="#67254a" stop-opacity="0"/><stop offset="1" stop-color="#f6ddd6"/></linearGradient><linearGradient id="linear-gradient-2" x1="-523.59" y1="465.57" x2="-523.59" y2="464.57" gradientTransform="matrix(-29.67, 0, 0, 29.6, -15530.01, -13755.4)" xlink:href="#linear-gradient"/><linearGradient id="linear-gradient-3" x1="-489.41" y1="444.42" x2="-489.41" y2="443.43" gradientTransform="matrix(29.67, 0, 0, -29.6, 14660.61, 13151)" xlink:href="#linear-gradient"/><linearGradient id="linear-gradient-4" x1="-517.07" y1="437.9" x2="-517.07" y2="436.91" gradientTransform="matrix(0, -29.6, -29.67, 0, 13072.23, -15294.6)" xlink:href="#linear-gradient"/><linearGradient id="linear-gradient-5" x1="-495.93" y1="472.08" x2="-495.93" y2="471.09" gradientTransform="matrix(0, 29.6, 29.67, 0, -13759.05, 14690.2)" xlink:href="#linear-gradient"/><linearGradient id="linear-gradient-6" x1="-523.59" y1="465.57" x2="-523.59" y2="464.57" gradientTransform="matrix(-29.67, 0, 0, 29.6, -15347.43, -13755.4)" xlink:href="#linear-gradient"/><linearGradient id="linear-gradient-7" x1="-489.41" y1="444.42" x2="-489.41" y2="443.43" gradientTransform="matrix(29.67, 0, 0, -29.6, 14843.19, 13151)" xlink:href="#linear-gradient"/><linearGradient id="linear-gradient-8" x1="-517.07" y1="437.9" x2="-517.07" y2="436.91" gradientTransform="matrix(0, -29.6, -29.67, 0, 13254.81, -15294.6)" xlink:href="#linear-gradient"/><linearGradient id="linear-gradient-9" x1="-495.93" y1="472.08" x2="-495.93" y2="471.09" gradientTransform="matrix(0, 29.6, 29.67, 0, -13941.63, 14785.83)" xlink:href="#linear-gradient"/><linearGradient id="linear-gradient-10" x1="-523.59" y1="465.57" x2="-523.59" y2="464.57" gradientTransform="matrix(-29.67, 0, 0, 29.6, -15530.01, -13659.77)" xlink:href="#linear-gradient"/><linearGradient id="linear-gradient-11" x1="-489.41" y1="444.42" x2="-489.41" y2="443.42" gradientTransform="matrix(29.67, 0, 0, -29.6, 14660.61, 13246.63)" xlink:href="#linear-gradient"/><linearGradient id="linear-gradient-12" x1="-517.07" y1="437.9" x2="-517.07" y2="436.91" gradientTransform="matrix(0, -29.6, -29.67, 0, 13072.23, -15198.97)" xlink:href="#linear-gradient"/><linearGradient id="linear-gradient-13" x1="-495.93" y1="472.08" x2="-495.93" y2="471.09" gradientTransform="matrix(0, 29.6, 29.67, 0, -13759.05, 14785.83)" xlink:href="#linear-gradient"/><linearGradient id="linear-gradient-14" x1="-523.59" y1="465.57" x2="-523.59" y2="464.57" gradientTransform="matrix(-29.67, 0, 0, 29.6, -15347.43, -13659.77)" xlink:href="#linear-gradient"/><linearGradient id="linear-gradient-15" x1="-489.41" y1="444.42" x2="-489.41" y2="443.42" gradientTransform="matrix(29.67, 0, 0, -29.6, 14843.19, 13246.63)" xlink:href="#linear-gradient"/><linearGradient id="linear-gradient-16" x1="-517.08" y1="437.9" x2="-517.08" y2="436.91" gradientTransform="matrix(0, -29.6, -29.67, 0, 13254.81, -15198.97)" xlink:href="#linear-gradient"/><linearGradient id="linear-gradient-17" x1="-517.07" y1="437.91" x2="-517.07" y2="436.91" gradientTransform="matrix(0, -29.6, -29.67, 0, 13026.58, -15246.79)" xlink:href="#linear-gradient"/><linearGradient id="linear-gradient-18" x1="-489.41" y1="444.42" x2="-489.41" y2="443.43" gradientTransform="matrix(29.67, 0, 0, -29.6, 14523.68, 13198.82)" xlink:href="#linear-gradient"/><linearGradient id="linear-gradient-19" x1="-489.41" y1="444.42" x2="-489.41" y2="443.43" gradientTransform="matrix(29.67, 0, 0, -29.6, 14660.61, 13198.82)" xlink:href="#linear-gradient"/><linearGradient id="linear-gradient-20" x1="-495.93" y1="472.08" x2="-495.93" y2="471.09" gradientTransform="matrix(0, 29.6, 29.67, 0, -13895.98, 14738.02)" xlink:href="#linear-gradient"/><linearGradient id="linear-gradient-21" x1="-517.07" y1="437.9" x2="-517.07" y2="436.91" gradientTransform="matrix(0, -29.6, -29.67, 0, 13209.16, -15246.79)" xlink:href="#linear-gradient"/><linearGradient id="linear-gradient-22" x1="-489.41" y1="444.42" x2="-489.41" y2="443.43" gradientTransform="matrix(29.67, 0, 0, -29.6, 14706.25, 13198.82)" xlink:href="#linear-gradient"/><linearGradient id="linear-gradient-23" x1="-489.41" y1="444.42" x2="-489.41" y2="443.43" gradientTransform="matrix(29.67, 0, 0, -29.6, 14843.19, 13198.82)" xlink:href="#linear-gradient"/><linearGradient id="linear-gradient-24" x1="-495.93" y1="472.08" x2="-495.93" y2="471.09" gradientTransform="matrix(0, 29.6, 29.67, 0, -13713.41, 14738.01)" xlink:href="#linear-gradient"/><linearGradient id="linear-gradient-25" x1="-495.93" y1="472.08" x2="-495.93" y2="471.09" gradientTransform="matrix(0, 29.6, 29.67, 0, -13918.8, 14712.97)" xlink:href="#linear-gradient"/><linearGradient id="linear-gradient-26" x1="-523.59" y1="465.57" x2="-523.59" y2="464.57" gradientTransform="matrix(-29.67, 0, 0, 29.6, -15507.19, -13732.63)" xlink:href="#linear-gradient"/><linearGradient id="linear-gradient-27" x1="-489.41" y1="444.42" x2="-489.41" y2="443.43" gradientTransform="matrix(29.67, 0, 0, -29.6, 14683.43, 13173.77)" xlink:href="#linear-gradient"/><linearGradient id="linear-gradient-28" x1="-517.07" y1="437.9" x2="-517.07" y2="436.91" gradientTransform="matrix(0, -29.6, -29.67, 0, 13095.05, -15271.83)" xlink:href="#linear-gradient"/><linearGradient id="linear-gradient-29" x1="-495.93" y1="472.08" x2="-495.93" y2="471.09" gradientTransform="matrix(0, 29.6, 29.67, 0, -13736.23, 14712.97)" xlink:href="#linear-gradient"/><linearGradient id="linear-gradient-30" x1="-523.59" y1="465.57" x2="-523.59" y2="464.57" gradientTransform="matrix(-29.67, 0, 0, 29.6, -15324.61, -13732.63)" xlink:href="#linear-gradient"/><linearGradient id="linear-gradient-31" x1="-489.41" y1="444.42" x2="-489.41" y2="443.43" gradientTransform="matrix(29.67, 0, 0, -29.6, 14866.01, 13173.77)" xlink:href="#linear-gradient"/><linearGradient id="linear-gradient-32" x1="-517.07" y1="437.9" x2="-517.07" y2="436.91" gradientTransform="matrix(0, -29.6, -29.67, 0, 13277.63, -15271.83)" xlink:href="#linear-gradient"/><linearGradient id="linear-gradient-33" x1="-495.92" y1="472.08" x2="-495.92" y2="471.09" gradientTransform="matrix(0, 29.6, 29.67, 0, -13918.8, 14808.6)" xlink:href="#linear-gradient"/><linearGradient id="linear-gradient-34" x1="-523.59" y1="465.57" x2="-523.59" y2="464.58" gradientTransform="matrix(-29.67, 0, 0, 29.6, -15507.19, -13637)" xlink:href="#linear-gradient"/><linearGradient id="linear-gradient-35" x1="-489.41" y1="444.42" x2="-489.41" y2="443.42" gradientTransform="matrix(29.67, 0, 0, -29.6, 14683.43, 13269.4)" xlink:href="#linear-gradient"/><linearGradient id="linear-gradient-36" x1="-517.08" y1="437.9" x2="-517.08" y2="436.91" gradientTransform="matrix(0, -29.6, -29.67, 0, 13095.05, -15176.2)" xlink:href="#linear-gradient"/><linearGradient id="linear-gradient-37" x1="-495.92" y1="472.08" x2="-495.92" y2="471.09" gradientTransform="matrix(0, 29.6, 29.67, 0, -13736.23, 14808.6)" xlink:href="#linear-gradient"/><linearGradient id="linear-gradient-38" x1="-523.59" y1="465.57" x2="-523.59" y2="464.58" gradientTransform="matrix(-29.67, 0, 0, 29.6, -15324.61, -13637)" xlink:href="#linear-gradient"/><linearGradient id="linear-gradient-39" x1="-489.41" y1="444.42" x2="-489.41" y2="443.42" gradientTransform="matrix(29.67, 0, 0, -29.6, 14866.01, 13269.4)" xlink:href="#linear-gradient"/><linearGradient id="linear-gradient-40" x1="-517.08" y1="437.9" x2="-517.08" y2="436.91" gradientTransform="matrix(0, -29.6, -29.67, 0, 13277.63, -15176.2)" xlink:href="#linear-gradient"/><linearGradient id="linear-gradient-41" x1="-517.07" y1="437.91" x2="-517.07" y2="436.91" gradientTransform="matrix(0, -29.6, -29.67, 0, 13049.41, -15224.02)" xlink:href="#linear-gradient"/><linearGradient id="linear-gradient-42" x1="-489.41" y1="444.42" x2="-489.41" y2="443.43" gradientTransform="matrix(29.67, 0, 0, -29.6, 14546.5, 13221.59)" xlink:href="#linear-gradient"/><linearGradient id="linear-gradient-43" x1="-489.41" y1="444.42" x2="-489.41" y2="443.43" gradientTransform="matrix(29.67, 0, 0, -29.6, 14683.43, 13221.59)" xlink:href="#linear-gradient"/><linearGradient id="linear-gradient-44" x1="-495.93" y1="472.08" x2="-495.93" y2="471.09" gradientTransform="matrix(0, 29.6, 29.67, 0, -13873.16, 14760.79)" xlink:href="#linear-gradient"/><linearGradient id="linear-gradient-45" x1="-517.07" y1="437.9" x2="-517.07" y2="436.91" gradientTransform="matrix(0, -29.6, -29.67, 0, 13231.98, -15224.02)" xlink:href="#linear-gradient"/><linearGradient id="linear-gradient-46" x1="-489.41" y1="444.42" x2="-489.41" y2="443.43" gradientTransform="matrix(29.67, 0, 0, -29.6, 14729.07, 13221.59)" xlink:href="#linear-gradient"/><linearGradient id="linear-gradient-47" x1="-489.41" y1="444.42" x2="-489.41" y2="443.43" gradientTransform="matrix(29.67, 0, 0, -29.6, 14866.01, 13221.59)" xlink:href="#linear-gradient"/><linearGradient id="linear-gradient-48" x1="-495.93" y1="472.08" x2="-495.93" y2="471.09" gradientTransform="matrix(0, 29.6, 29.67, 0, -13690.58, 14760.78)" xlink:href="#linear-gradient"/></defs><path id="a-2" data-name="a" class="cls-2" d="M-.1,0H350.1V140H-.1Z"/><g class="cls-3"><g class="cls-4"><ellipse class="cls-5" cx="49.41" cy="10.77" rx="14.84" ry="14.81"/><ellipse class="cls-6" cx="3.74" cy="10.77" rx="14.84" ry="14.81"/><ellipse class="cls-7" cx="140.75" cy="10.77" rx="14.84" ry="14.81"/><ellipse class="cls-8" cx="95.08" cy="10.77" rx="14.84" ry="14.81"/><ellipse class="cls-9" cx="232.09" cy="10.77" rx="14.84" ry="14.81"/><ellipse class="cls-10" cx="186.42" cy="10.77" rx="14.84" ry="14.81"/><ellipse class="cls-11" cx="323.43" cy="10.77" rx="14.84" ry="14.81"/><ellipse class="cls-12" cx="277.76" cy="10.77" rx="14.84" ry="14.81"/><ellipse class="cls-13" cx="49.41" cy="106.45" rx="14.84" ry="14.81"/><ellipse class="cls-14" cx="3.74" cy="106.45" rx="14.84" ry="14.81"/><ellipse class="cls-15" cx="140.75" cy="106.45" rx="14.84" ry="14.81"/><ellipse class="cls-16" cx="95.08" cy="106.45" rx="14.84" ry="14.81"/><ellipse class="cls-17" cx="232.09" cy="106.45" rx="14.84" ry="14.81"/><ellipse class="cls-18" cx="186.42" cy="106.45" rx="14.84" ry="14.81"/><ellipse class="cls-19" cx="323.43" cy="106.45" rx="14.84" ry="14.81"/><ellipse class="cls-20" cx="277.76" cy="106.45" rx="14.84" ry="14.81"/><ellipse class="cls-21" cx="49.41" cy="58.61" rx="14.84" ry="14.81"/><ellipse class="cls-22" cx="3.74" cy="58.61" rx="14.84" ry="14.81"/><ellipse class="cls-23" cx="140.75" cy="58.61" rx="14.84" ry="14.81"/><ellipse class="cls-24" cx="95.08" cy="58.61" rx="14.84" ry="14.81"/><ellipse class="cls-25" cx="232.09" cy="58.61" rx="14.84" ry="14.81"/><ellipse class="cls-26" cx="186.42" cy="58.61" rx="14.84" ry="14.81"/><ellipse class="cls-27" cx="323.43" cy="58.61" rx="14.84" ry="14.81"/><ellipse class="cls-28" cx="277.76" cy="58.61" rx="14.84" ry="14.81"/><ellipse class="cls-29" cx="72.24" cy="33.55" rx="14.84" ry="14.81"/><ellipse class="cls-30" cx="26.57" cy="33.55" rx="14.84" ry="14.81"/><ellipse class="cls-31" cx="163.58" cy="33.55" rx="14.84" ry="14.81"/><ellipse class="cls-32" cx="117.91" cy="33.55" rx="14.84" ry="14.81"/><ellipse class="cls-33" cx="254.92" cy="33.55" rx="14.84" ry="14.81"/><ellipse class="cls-34" cx="209.25" cy="33.55" rx="14.84" ry="14.81"/><ellipse class="cls-35" cx="346.26" cy="33.55" rx="14.84" ry="14.81"/><ellipse class="cls-36" cx="300.59" cy="33.55" rx="14.84" ry="14.81"/><ellipse class="cls-37" cx="72.24" cy="129.23" rx="14.84" ry="14.81"/><ellipse class="cls-38" cx="26.57" cy="129.23" rx="14.84" ry="14.81"/><ellipse class="cls-39" cx="163.58" cy="129.23" rx="14.84" ry="14.81"/><ellipse class="cls-40" cx="117.91" cy="129.23" rx="14.84" ry="14.81"/><ellipse class="cls-41" cx="254.92" cy="129.23" rx="14.84" ry="14.81"/><ellipse class="cls-42" cx="209.25" cy="129.23" rx="14.84" ry="14.81"/><ellipse class="cls-43" cx="346.26" cy="129.23" rx="14.84" ry="14.81"/><ellipse class="cls-44" cx="300.59" cy="129.23" rx="14.84" ry="14.81"/><ellipse class="cls-45" cx="72.24" cy="81.39" rx="14.84" ry="14.81"/><ellipse class="cls-46" cx="26.57" cy="81.39" rx="14.84" ry="14.81"/><ellipse class="cls-47" cx="163.58" cy="81.39" rx="14.84" ry="14.81"/><ellipse class="cls-48" cx="117.91" cy="81.39" rx="14.84" ry="14.81"/><ellipse class="cls-49" cx="254.92" cy="81.39" rx="14.84" ry="14.81"/><ellipse class="cls-50" cx="209.25" cy="81.39" rx="14.84" ry="14.81"/><ellipse class="cls-51" cx="346.26" cy="81.39" rx="14.84" ry="14.81"/><ellipse class="cls-52" cx="300.59" cy="81.39" rx="14.84" ry="14.81"/></g></g></svg>