<svg id="Layer_1" data-name="Layer 1" xmlns="http://www.w3.org/2000/svg" viewBox="0 0 268.97 257.19"><defs><style>.cls-1{opacity:0.17;}</style></defs><g class="cls-1"><path d="M38.51,56.46c0,8-5.31,13.63-13.11,13.63-9.2,0-15.93-8-15.93-21.42C9.47,31,19,16.27,35,8.12l4.78,8.67C28.9,23,22.32,32.34,21.44,44.55a11.88,11.88,0,0,1,4.67-1C33.37,43.53,38.51,48.84,38.51,56.46Z"/><path d="M79.23,56.46c0,8-5.31,13.63-13.1,13.63-9.21,0-15.94-8-15.94-21.42,0-17.71,9.56-32.4,25.5-40.55l4.78,8.67C69.63,23,63.05,32.34,62.16,44.55a11.92,11.92,0,0,1,4.68-1C74.1,43.53,79.23,48.84,79.23,56.46Z"/></g><g class="cls-1"><path d="M198.64,188c-7.62,0-13.11,5.67-13.11,13.81,0,7.44,5.14,12.75,12.58,12.75a11.58,11.58,0,0,0,4.69-1.09c-.83,12.18-7.43,21.56-18.51,28l5,8.49c15.94-8.14,25.32-22.66,25.32-40.36C214.57,196,208,188,198.64,188Z"/><path d="M255.3,209.59c0,17.7-9.39,32.22-25.32,40.36l-5-8.49c11.07-6.45,17.68-15.83,18.5-28a11.54,11.54,0,0,1-4.69,1.09c-7.44,0-12.57-5.31-12.57-12.75,0-8.14,5.49-13.81,13.1-13.81C248.74,188,255.3,196,255.3,209.59Z"/></g></svg>