<svg id="Layer_1" data-name="Layer 1" xmlns="http://www.w3.org/2000/svg" viewBox="0 0 268.97 257.19"><defs><style>.cls-1{opacity:0.17;}</style></defs><g class="cls-1"><path d="M119,170.28C119,189.42,106.2,203,87.48,203c-22.12,0-38.28-19.14-38.28-51.46,0-42.54,23-77.83,61.25-97.41L121.94,75c-26.06,15-41.86,37.35-44,66.68a28.63,28.63,0,0,1,11.23-2.45C106.62,139.23,119,152,119,170.28Z"/><path d="M216.79,170.28c0,19.14-12.76,32.75-31.48,32.75C163.2,203,147,183.89,147,151.57c0-42.54,23-77.83,61.25-97.41L219.77,75c-26.05,15-41.86,37.35-44,66.68A28.55,28.55,0,0,1,187,139.23C204.46,139.23,216.79,152,216.79,170.28Z"/></g></svg>