<svg id="Layer_1" data-name="Layer 1" xmlns="http://www.w3.org/2000/svg" viewBox="0 0 268.97 257.19"><defs><style>.cls-1{opacity:0.17;}</style></defs><g class="cls-1"><path d="M83.65,54.16c-18.29,0-31.47,13.61-31.47,33.18,0,17.86,12.33,30.62,30.2,30.62a27.89,27.89,0,0,0,11.27-2.61c-2,29.24-17.85,51.78-44.45,67.27L61.11,203c38.28-19.56,60.83-54.44,60.83-97C121.94,73.3,106.2,54.16,83.65,54.16Z"/><path d="M219.77,106.05c0,42.54-22.55,77.42-60.83,97L147,182.62c26.61-15.49,42.47-38,44.45-67.27A27.89,27.89,0,0,1,180.21,118C162.35,118,150,105.2,150,87.34c0-19.57,13.19-33.18,31.48-33.18C204,54.16,219.77,73.3,219.77,106.05Z"/></g></svg>